<?xml version="1.0" standalone="no"?>
<!DOCTYPE svg PUBLIC "-//W3C//DTD SVG 20010904//EN"
 "http://www.w3.org/TR/2001/REC-SVG-20010904/DTD/svg10.dtd">
<svg version="1.0" xmlns="http://www.w3.org/2000/svg"
 width="200.000000pt" height="200.000000pt" viewBox="0 0 200.000000 200.000000"
 preserveAspectRatio="xMidYMid meet">

<g transform="translate(0.000000,200.000000) scale(0.100000,-0.100000)"
fill="#000000" stroke="none">
<path d="M860 1234 c0 -226 -2 -271 -16 -301 -42 -87 -163 -103 -230 -30 -44
48 -51 97 -22 155 30 60 71 82 156 82 l62 0 0 45 0 45 -74 0 c-109 0 -173 -33
-220 -113 -51 -87 -43 -192 21 -266 51 -61 104 -85 184 -86 56 0 73 4 115 30
30 19 60 49 79 79 l30 49 3 289 3 288 -46 0 -45 0 0 -266z"/>
<path d="M1123 1200 c-111 -64 -123 -107 -123 -442 0 -142 3 -258 6 -258 3 0
23 14 44 30 l39 31 3 237 c3 216 5 240 23 271 47 80 157 94 223 28 30 -30 36
-44 39 -89 7 -95 -45 -145 -161 -156 -67 -5 -76 -12 -71 -51 2 -14 4 -29 4
-33 2 -14 116 -8 162 7 211 72 214 366 6 444 -16 6 -54 11 -85 11 -45 0 -68
-7 -109 -30z"/>
</g>
</svg>
