<?xml version="1.0" standalone="no"?>
<!DOCTYPE svg PUBLIC "-//W3C//DTD SVG 20010904//EN"
 "http://www.w3.org/TR/2001/REC-SVG-20010904/DTD/svg10.dtd">
<svg version="1.0" xmlns="http://www.w3.org/2000/svg"
 width="200.000000pt" height="200.000000pt" viewBox="0 0 200.000000 200.000000"
 preserveAspectRatio="xMidYMid meet">

<g transform="translate(0.000000,200.000000) scale(0.100000,-0.100000)"
fill="#000000" stroke="none">
<path d="M355 1242 c-4 -25 -13 -41 -28 -47 -30 -14 -36 -55 -8 -55 20 0 21
-6 21 -101 0 -100 0 -101 -22 -95 -13 3 -28 6 -35 6 -6 0 -19 7 -27 16 -15 14
-16 13 -16 -9 0 -103 97 -184 123 -102 5 17 17 38 26 48 8 10 16 37 17 60 2
33 0 37 -6 17 -6 -21 -8 -22 -14 -8 -8 17 21 168 31 168 3 0 3 -28 0 -62 l-5
-63 11 58 c7 33 20 64 30 71 25 19 22 56 -4 56 -18 0 -19 3 -9 14 6 8 21 16
33 18 14 2 23 11 25 26 3 21 0 22 -66 22 l-70 0 -7 -38z"/>
<path d="M515 1178 c-13 -62 -33 -231 -28 -244 2 -7 15 -16 26 -20 24 -8 87
-7 95 0 10 10 -9 56 -23 56 -18 0 -18 -7 0 110 20 127 21 120 -25 120 -33 0
-40 -4 -45 -22z"/>
<path d="M1167 1141 c-4 -18 -14 -30 -27 -34 -24 -6 -24 -44 -1 -39 10 2 12
-15 9 -70 -3 -69 -2 -73 22 -84 14 -6 42 -9 63 -7 31 4 37 9 37 30 0 16 -7 27
-20 30 -14 4 -20 14 -20 32 0 50 11 71 36 71 17 0 24 6 24 20 0 13 -7 20 -20
20 -16 0 -20 7 -20 30 0 28 -2 30 -39 30 -34 0 -39 -3 -44 -29z"/>
<path d="M679 1105 c-52 -29 -66 -129 -24 -170 21 -22 33 -25 92 -25 79 0 94
7 86 38 -5 19 -12 22 -59 22 -69 0 -70 16 -1 25 79 11 109 51 73 100 -18 25
-129 32 -167 10z m94 -49 c3 -12 -30 -32 -39 -24 -11 12 5 40 21 36 9 -2 17
-7 18 -12z"/>
<path d="M911 1092 c-48 -48 -49 -146 -2 -171 21 -12 129 -15 155 -5 9 3 16
17 16 30 0 22 -4 24 -54 24 -73 0 -80 16 -11 25 65 8 87 26 83 69 -4 39 -35
56 -106 56 -45 0 -58 -4 -81 -28z m105 -33 c7 -12 -12 -29 -33 -29 -28 0 -11
36 19 39 4 1 10 -4 14 -10z"/>
<path d="M1349 1105 c-31 -17 -49 -60 -49 -116 0 -29 6 -42 28 -59 23 -19 37
-21 99 -18 39 2 74 6 77 9 3 2 3 15 -1 27 -5 19 -12 22 -59 22 -71 0 -69 17 2
26 42 5 59 12 71 30 20 32 10 72 -23 84 -37 14 -115 11 -145 -5z m94 -42 c11
-10 -13 -33 -35 -33 -16 0 -17 3 -8 20 11 20 31 26 43 13z"/>
<path d="M1565 1108 c-4 -13 -25 -173 -25 -190 0 -4 18 -8 39 -8 42 0 51 11
51 58 0 57 10 72 46 72 37 0 39 2 49 48 6 29 4 32 -16 32 -12 0 -31 -7 -41
-17 -17 -15 -18 -15 -18 0 0 13 -9 17 -40 17 -24 0 -42 -5 -45 -12z"/>
<path d="M1080 844 c0 -14 4 -23 9 -19 11 6 10 45 -1 45 -4 0 -8 -12 -8 -26z"/>
<path d="M1110 852 c0 -11 4 -23 9 -27 6 -3 8 4 6 16 -6 30 -15 37 -15 11z"/>
<path d="M1140 845 c0 -13 6 -22 15 -22 9 0 15 9 15 22 0 13 -6 22 -15 22 -9
0 -15 -9 -15 -22z"/>
<path d="M1182 845 c0 -16 2 -22 5 -12 2 9 2 23 0 30 -3 6 -5 -1 -5 -18z"/>
<path d="M1262 850 c2 -19 9 -25 28 -25 19 0 25 6 27 25 l2 25 -8 -25 c-9 -24
-9 -24 -10 -2 -1 23 -21 32 -21 10 0 -9 -4 -8 -11 2 -8 12 -9 10 -7 -10z"/>
<path d="M1340 851 c0 -11 4 -22 9 -25 4 -3 6 6 3 19 -5 30 -12 33 -12 6z"/>
<path d="M1370 844 c0 -31 23 -28 28 4 2 15 -2 22 -12 22 -11 0 -16 -9 -16
-26z m17 -6 c-3 -8 -6 -5 -6 6 -1 11 2 17 5 13 3 -3 4 -12 1 -19z"/>
<path d="M1472 850 c0 -14 2 -19 5 -12 2 6 2 18 0 25 -3 6 -5 1 -5 -13z"/>
<path d="M1491 845 c0 -20 2 -26 8 -16 6 10 10 10 16 1 5 -8 12 -5 22 10 8 12
12 24 9 27 -3 4 -6 0 -6 -8 0 -12 -2 -11 -10 1 -8 12 -11 13 -19 1 -7 -11 -9
-11 -14 0 -3 8 -6 1 -6 -16z"/>
<path d="M1570 860 c0 -8 5 -22 10 -30 9 -13 10 -13 10 0 0 8 -5 22 -10 30 -9
13 -10 13 -10 0z"/>
<path d="M1598 845 c2 -14 8 -25 12 -25 5 0 7 8 5 18 -2 9 -4 20 -4 25 -1 4
-5 7 -10 7 -4 0 -6 -11 -3 -25z"/>
<path d="M1220 850 c0 -5 5 -10 11 -10 5 0 7 5 4 10 -3 6 -8 10 -11 10 -2 0
-4 -4 -4 -10z"/>
<path d="M1425 850 c-3 -5 -1 -10 4 -10 6 0 11 5 11 10 0 6 -2 10 -4 10 -3 0
-8 -4 -11 -10z"/>
</g>
</svg>
