<?xml version="1.0" encoding="UTF-8"?><svg id="Layer_1" xmlns="http://www.w3.org/2000/svg" viewBox="0 0 250 100"><defs><style>.cls-1{fill:#0e4c87;}.cls-2{font-family:Bebas-Regular, Bebas;font-size:11.63px;}</style></defs><g><path class="cls-1" d="M59.73,60.32c-.33,1.7,.2,2.1,2.56,2.1h2.62l.79,8.92c-2.1,1.18-7.21,1.57-9.37,1.57-7.34,0-11.41-3.67-10.69-9.44l5.31-37.37h13.7l-4.92,34.22Z"/><path class="cls-1" d="M105.16,50.49c-.85,5.9-5.11,7.47-13.96,8.13l-8.19,.59c.13,2.56,1.44,3.02,4.65,3.02,2.69,0,9.44-.26,13.44-.72l.92,8.39c-4.65,2.16-10.36,2.88-15.54,2.88-14.95,0-18.68-6.23-17.57-17.44,1.44-14.03,8.32-17.04,19.99-17.04,13.57,0,17.44,4.26,16.26,12.19Zm-16.13-3.34c-3.21,.07-4.26,1.05-5.18,5.38l3.74-.39c2.69-.26,4.2-.52,4.46-3.02,.13-1.44-.33-2.03-3.02-1.97Z"/><path class="cls-1" d="M143.83,50.49c-.85,5.9-5.11,7.47-13.96,8.13l-8.19,.59c.13,2.56,1.44,3.02,4.65,3.02,2.69,0,9.44-.26,13.44-.72l.92,8.39c-4.65,2.16-10.36,2.88-15.54,2.88-14.95,0-18.68-6.23-17.57-17.44,1.44-14.03,8.32-17.04,19.99-17.04,13.57,0,17.44,4.26,16.26,12.19Zm-16.13-3.34c-3.21,.07-4.26,1.05-5.18,5.38l3.74-.39c2.69-.26,4.2-.52,4.46-3.02,.13-1.44-.33-2.03-3.02-1.97Z"/><path class="cls-1" d="M163.83,60.32c-.26,1.7,0,2.1,2.03,2.1h3.87l.72,8.92c-3.02,1.18-8.19,1.57-10.95,1.57-6.69,0-10.69-3.67-9.83-9.44l2.36-16h-5.64l.53-4.43c.26-2.18,2.1-3.82,4.3-3.83h2.06s1.25-8.59,1.25-8.59h13.57l-1.25,8.59h7.87l-.61,4.5c-.29,2.15-2.13,3.76-4.3,3.76h-4.14l-1.84,12.85Z"/><path class="cls-1" d="M211.29,50.49c-.85,5.9-5.11,7.47-13.96,8.13l-8.19,.59c.13,2.56,1.44,3.02,4.65,3.02,2.69,0,9.44-.26,13.44-.72l.92,8.39c-4.65,2.16-10.36,2.88-15.54,2.88-14.95,0-18.68-6.23-17.57-17.44,1.44-14.03,8.32-17.04,19.99-17.04,13.57,0,17.44,4.26,16.26,12.19Zm-16.13-3.34c-3.21,.07-4.26,1.05-5.18,5.38l3.74-.39c2.69-.26,4.2-.52,4.46-3.02,.13-1.44-.33-2.03-3.02-1.97Z"/><path class="cls-1" d="M240.91,50.89h-3.08c-2.23,0-4.59,.2-8.72,.85l-2.75,20.26h-13.83l4.7-33.68h13.73l-.72,5.35c3.63-4.57,7.14-5.36,11.14-5.36h2.36l-2.82,12.59Z"/><g><g><polygon class="cls-1" points="33.97 52.74 33.83 53.55 33.46 55.68 32.38 61.95 31.87 64.9 31.47 67.22 32.84 67.46 33 66.52 33.52 63.55 34.6 57.28 35.21 53.77 35.34 52.97 33.97 52.74"/><g><path class="cls-1" d="M37.03,30.61l-.21,1.36-2.99,19.02-.23,1.47,2.11,.28,.23-1.46,2.99-19.02,.21-1.36c-.19-.12-.44-.21-.71-.24l-.64-.09s0,0,0,0c-.27-.04-.53-.02-.75,.05Z"/><path class="cls-1" d="M34.16,53.66l.64,.08c.71,.1,1.39-.45,1.51-1.22v-.03c.13-.77-.35-1.47-1.07-1.56l-.64-.08c-.71-.1-1.39,.45-1.51,1.22v.03c-.13,.77,.35,1.47,1.07,1.56Z"/><path class="cls-1" d="M36.37,31.21v.02c-.05,.28,.13,.55,.45,.75,.19,.12,.44,.21,.71,.25l.64,.08c.27,.04,.54,.02,.76-.05,.36-.1,.62-.32,.66-.6v-.02c.05-.28-.13-.56-.45-.75-.19-.12-.44-.21-.71-.24l-.64-.09s0,0,0,0c-.27-.04-.53-.02-.75,.05-.36,.1-.62,.32-.66,.6Z"/></g><path class="cls-1" d="M23.63,29.69l-.13,2.59-.42,36.44s-.67,4.16-.85,5.26c-.08,.47-.14,.79-.16,.89-.11,.48,3.01,.94,4.68,1.15,.33,.04,.6,.08,.78,.1,.15,.02,.24,.03,.24,.03l4.18-4.18,1.53-1.52,1.69-1.69-1.65-2.2-1.19-1.58-3.34-4.45,.58-2.62,1.27-5.74,4.56-20.51,1.95-.69,.67-.23,.35-.12-.73-4.05h-13.61l-.41,3.12Z"/><path class="cls-1" d="M7.2,60.17h.01c.34,.02,.64,.25,.75,.57l.97,2.98,10.74,2.76,4.04,1.05,3.2,.82,2.63,.68-1.52,6.73-.24,1.07-.98,4.37c0,.16-.02,.3-.03,.45-.47,4.17-4.89,4.76-4.89,4.76-.48,.08-.95,.12-1.4,.12h0c-4.97,.03-8.28-4.23-10.45-9.14-1.39-3.14-2.31-6.54-2.89-9.24-.64-2.98-.87-5.11-.87-5.11l.06-2.06c.01-.46,.41-.83,.87-.8Z"/><path class="cls-1" d="M25.2,70.4c-.7,.51-.67,1.54,.06,2,.4,.26,.95,.24,1.34-.04,.7-.51,.67-1.54-.06-2-.4-.26-.95-.24-1.34,.04Z"/></g><path class="cls-1" d="M24.04,26.57l1.79-11.62c.22-1.42,1.45-2.46,2.88-2.45l20.68,.16-2.16,8.97h-5.57s-4.02-.13-4.02,4.95h-13.61Z"/><path class="cls-1" d="M39.43,34.98H16.24l.8-5.12c.33-2.11,2.15-3.67,4.29-3.67h23.19l-.8,5.12c-.33,2.11-2.15,3.67-4.29,3.67Z"/></g></g><g><text class="cls-2" transform="translate(139.74 85.75)"><tspan x="0" y="0" xml:space="preserve">Rent    Build    Thrive</tspan></text><circle cx="163.62" cy="81.76" r="1.53"/><circle cx="195.94" cy="81.76" r="1.53"/></g></svg>