<?xml version="1.0" standalone="no"?>
<!DOCTYPE svg PUBLIC "-//W3C//DTD SVG 20010904//EN"
 "http://www.w3.org/TR/2001/REC-SVG-20010904/DTD/svg10.dtd">
<svg version="1.0" xmlns="http://www.w3.org/2000/svg"
 width="200.000000pt" height="200.000000pt" viewBox="0 0 200.000000 200.000000"
 preserveAspectRatio="xMidYMid meet">

<g transform="translate(0.000000,200.000000) scale(0.100000,-0.100000)"
fill="#000000" stroke="none">
<path d="M0 1000 l0 -1000 1000 0 1000 0 0 1000 0 1000 -1000 0 -1000 0 0
-1000z m1018 588 l3 -138 44 0 c42 0 45 -2 40 -22 -3 -13 -11 -52 -18 -88
l-13 -65 -49 -5 c-50 -5 -50 -5 -61 -50 -6 -25 -14 -62 -18 -82 l-7 -38 51 0
c47 0 50 -1 45 -22 -35 -155 -63 -333 -55 -353 19 -49 53 -60 200 -63 l136 -4
12 54 c6 29 14 70 18 91 l6 37 -41 0 c-62 0 -62 3 -19 213 l10 47 53 0 53 0
11 63 c6 34 14 72 17 85 6 21 3 22 -46 22 l-53 0 7 40 c3 22 11 63 17 90 l11
50 142 0 143 0 5 -117 c5 -125 22 -177 67 -216 20 -16 21 -25 19 -160 l-3
-142 -66 -21 c-152 -49 -285 -148 -335 -250 -23 -48 -26 -62 -21 -131 2 -43 8
-88 12 -100 6 -19 2 -23 -37 -33 -87 -24 -204 28 -280 123 -21 27 -69 113
-107 191 -37 77 -81 153 -96 169 -43 42 -83 37 -145 -18 -66 -59 -99 -60 -149
-7 -21 22 -48 69 -65 111 -23 60 -40 84 -93 135 -71 68 -98 105 -108 154 l-7
32 211 0 211 0 0 280 0 280 173 -2 172 -3 3 -137z m328 30 c-4 -18 -9 -50 -13
-70 l-6 -38 -74 0 c-66 0 -74 2 -69 18 2 9 7 33 11 52 13 73 10 70 87 70 l71
0 -7 -32z m-36 -180 c-1 -7 -27 -143 -58 -303 l-57 -290 -73 -3 c-39 -2 -72
-1 -72 1 0 1 27 138 60 302 33 164 60 300 60 302 0 2 32 3 70 3 50 0 70 -4 70
-12z"/>
</g>
</svg>
